<svg width="353" height="53" viewBox="0 0 353 53" fill="none" xmlns="http://www.w3.org/2000/svg">
<rect width="353" height="52.4582" fill="white"/>
<path d="M1.67676 4.59633H11.2078C12.5021 4.59633 13.767 4.74621 15.0025 5.04598C16.238 5.34574 17.3411 5.84534 18.3119 6.54478C19.2826 7.21093 20.0622 8.09355 20.6505 9.19267C21.2683 10.2918 21.5771 11.6574 21.5771 13.2894C21.5771 15.3544 21.077 17.0697 20.0769 18.4353C19.1061 19.7676 17.7824 20.7168 16.1056 21.283V21.383C17.1058 21.4829 18.0324 21.7826 18.8855 22.2822C19.768 22.7485 20.5181 23.3647 21.1359 24.1308C21.783 24.8968 22.2831 25.7962 22.6361 26.8286C22.9891 27.8278 23.1656 28.9102 23.1656 30.076C23.1656 32.0412 22.7978 33.6564 22.0625 34.9222C21.3565 36.1879 20.4152 37.2036 19.2385 37.9697C18.0913 38.7024 16.7822 39.2187 15.3114 39.5185C13.87 39.8183 12.4285 39.9682 10.9871 39.9682H1.67676V4.59633ZM5.38326 19.5844H10.5018C11.3843 19.5844 12.2373 19.5178 13.061 19.3846C13.9141 19.2513 14.6789 18.9849 15.3555 18.5852C16.0321 18.1522 16.5763 17.5693 16.9881 16.8366C17.4 16.0705 17.6059 15.0713 17.6059 13.839C17.6059 12.7398 17.4147 11.8572 17.0323 11.1911C16.6498 10.4916 16.135 9.94207 15.4879 9.54239C14.8701 9.14271 14.1494 8.87625 13.3258 8.74303C12.5315 8.57649 11.7225 8.49323 10.8989 8.49323H5.38326V19.5844ZM5.38326 36.0713H11.649C12.5609 36.0713 13.4581 35.9713 14.3406 35.7715C15.2525 35.5384 16.0615 35.1887 16.7675 34.7223C17.5029 34.2227 18.0913 33.59 18.5325 32.8238C18.9738 32.0245 19.1944 31.0585 19.1944 29.9262C19.1944 28.6939 18.9738 27.6612 18.5325 26.8286C18.1207 25.996 17.5618 25.3298 16.8558 24.8302C16.1792 24.3306 15.3849 23.9809 14.473 23.781C13.5905 23.5812 12.6786 23.4813 11.7373 23.4813H5.38326V36.0713ZM29.1616 2.19824H32.6033V39.9682H29.1616V2.19824ZM57.4558 34.4226C57.4558 35.4885 57.4854 36.4877 57.5441 37.4202C57.603 38.3527 57.6323 39.202 57.6323 39.9682H54.3671C54.3671 39.3354 54.3525 38.7024 54.323 38.0697C54.2936 37.4369 54.2788 36.7874 54.2788 36.1212H54.1906C53.9554 36.6875 53.617 37.2371 53.1757 37.7699C52.764 38.3027 52.2639 38.7858 51.6755 39.2187C51.0873 39.6184 50.4254 39.9349 49.6898 40.168C48.9545 40.4345 48.1602 40.5677 47.3071 40.5677C45.954 40.5677 44.7774 40.3346 43.7771 39.8682C42.8063 39.4019 41.9975 38.7524 41.3502 37.9198C40.7031 37.0872 40.2177 36.088 39.8941 34.9222C39.6 33.7231 39.4528 32.4242 39.4528 31.0253V16.5868H42.8946V30.6256C42.8946 32.5908 43.2771 34.1395 44.0418 35.2719C44.8067 36.4042 45.9981 36.9705 47.616 36.9705C48.7339 36.9705 49.6898 36.754 50.4841 36.3211C51.3079 35.8882 51.9698 35.2719 52.4697 34.4725C52.9992 33.6732 53.3818 32.7239 53.617 31.6248C53.8817 30.5257 54.0141 29.3099 54.0141 27.9777V16.5868H57.4558V34.4226ZM82.4158 35.7215C81.1803 37.5201 79.8272 38.7858 78.3563 39.5185C76.8856 40.218 75.1793 40.5677 73.2378 40.5677C71.62 40.5677 70.1638 40.2512 68.8694 39.6184C67.5752 38.9522 66.4721 38.0697 65.56 36.9705C64.6775 35.8714 63.9863 34.5724 63.4862 33.0736C63.0156 31.5748 62.7802 29.9761 62.7802 28.2775C62.7802 26.4789 63.0449 24.8302 63.5744 23.3314C64.1039 21.7993 64.8395 20.5003 65.7807 19.4345C66.7221 18.3354 67.84 17.4861 69.1342 16.8865C70.4286 16.287 71.8406 15.9873 73.3702 15.9873C74.8117 15.9873 76.1355 16.2704 77.3414 16.8366C78.5476 17.3695 79.5772 18.1688 80.4302 19.2347C81.3127 20.2672 81.9893 21.5495 82.4599 23.0816C82.9307 24.5804 83.1659 26.2958 83.1659 28.2275V29.4765H66.4867C66.5456 30.4757 66.7514 31.4417 67.1044 32.3742C67.487 33.2735 67.9724 34.0728 68.5605 34.7723C69.149 35.4385 69.8402 35.9713 70.6344 36.371C71.4287 36.7707 72.2966 36.9705 73.2378 36.9705C74.738 36.9705 76.0031 36.6708 77.0326 36.0713C78.0622 35.4717 78.9888 34.5892 79.8124 33.4234L82.4158 35.7215ZM79.4594 26.1791C79.4007 24.1807 78.8271 22.582 77.7386 21.383C76.6502 20.1839 75.15 19.5844 73.2378 19.5844C71.3259 19.5844 69.7815 20.1839 68.6047 21.383C67.4281 22.582 66.7221 24.1807 66.4867 26.1791H79.4594ZM85.4898 4.59633H89.5934L96.6975 33.9729H96.7858L104.464 4.59633H108.611L116.245 33.9729H116.333L123.57 4.59633H127.453L118.275 39.9682H114.259L106.537 9.99204H106.449L98.6831 39.9682H94.6236L85.4898 4.59633ZM129.076 19.5844C130.135 18.352 131.385 17.4528 132.826 16.8865C134.297 16.287 135.783 15.9873 137.283 15.9873C140.342 15.9873 142.548 16.8033 143.902 18.4353C145.255 20.0673 145.931 22.5487 145.931 25.8794V35.9214C145.931 36.5876 145.961 37.287 146.02 38.0197C146.078 38.7191 146.152 39.3686 146.24 39.9682H142.931C142.813 39.4353 142.74 38.8523 142.71 38.2195C142.71 37.5533 142.71 36.9705 142.71 36.4709H142.622C141.946 37.67 141.033 38.6524 139.886 39.4186C138.768 40.1847 137.415 40.5677 135.827 40.5677C134.768 40.5677 133.768 40.4178 132.826 40.118C131.914 39.8183 131.105 39.3854 130.399 38.8191C129.723 38.2195 129.179 37.4869 128.767 36.6208C128.355 35.7548 128.149 34.7556 128.149 33.6232C128.149 31.6915 128.59 30.176 129.473 29.0768C130.355 27.9777 131.444 27.1616 132.738 26.6288C134.062 26.096 135.474 25.7627 136.974 25.6296C138.504 25.4964 139.901 25.4297 141.166 25.4297H142.49V24.7303C142.49 23.0316 142.034 21.7493 141.122 20.8834C140.239 20.0174 138.989 19.5844 137.371 19.5844C136.253 19.5844 135.15 19.8009 134.062 20.2339C133.003 20.6336 132.062 21.2664 131.238 22.1324L129.076 19.5844ZM139.048 28.7271C136.842 28.7271 135.091 29.0768 133.797 29.7763C132.503 30.4757 131.855 31.6248 131.855 33.2235C131.855 34.6891 132.282 35.7383 133.135 36.371C134.018 36.9705 135.106 37.2703 136.4 37.2703C137.401 37.2703 138.268 37.0872 139.004 36.7207C139.769 36.3211 140.401 35.8047 140.901 35.172C141.401 34.5392 141.784 33.8063 142.048 32.9737C142.313 32.1077 142.46 31.1919 142.49 30.2259V28.7271H139.048ZM161.62 39.9682H157.825L149.398 16.5868H153.413L159.855 34.9222H159.943L166.077 16.5868H169.783L161.62 39.9682ZM191.953 35.7215C190.717 37.5201 189.364 38.7858 187.893 39.5185C186.422 40.218 184.716 40.5677 182.775 40.5677C181.157 40.5677 179.701 40.2512 178.406 39.6184C177.112 38.9522 176.009 38.0697 175.097 36.9705C174.215 35.8714 173.523 34.5724 173.023 33.0736C172.552 31.5748 172.317 29.9761 172.317 28.2775C172.317 26.4789 172.582 24.8302 173.111 23.3314C173.641 21.7993 174.376 20.5003 175.318 19.4345C176.259 18.3354 177.377 17.4861 178.671 16.8865C179.965 16.287 181.377 15.9873 182.907 15.9873C184.349 15.9873 185.672 16.2704 186.878 16.8366C188.084 17.3695 189.114 18.1688 189.967 19.2347C190.85 20.2672 191.526 21.5495 191.997 23.0816C192.468 24.5804 192.703 26.2958 192.703 28.2275V29.4765H176.024C176.082 30.4757 176.288 31.4417 176.641 32.3742C177.024 33.2735 177.509 34.0728 178.098 34.7723C178.686 35.4385 179.377 35.9713 180.171 36.371C180.966 36.7707 181.833 36.9705 182.775 36.9705C184.275 36.9705 185.54 36.6708 186.57 36.0713C187.599 35.4717 188.526 34.5892 189.349 33.4234L191.953 35.7215ZM188.996 26.1791C188.938 24.1807 188.364 22.582 187.276 21.383C186.187 20.1839 184.687 19.5844 182.775 19.5844C180.863 19.5844 179.318 20.1839 178.142 21.383C176.965 22.582 176.259 24.1807 176.024 26.1791H188.996Z" fill="#344054"/>
<path d="M234.357 26.4788C234.357 28.4105 234.136 30.2425 233.695 31.9744C233.282 33.7062 232.605 35.2385 231.665 36.5707C230.752 37.8697 229.547 38.9188 228.047 39.7182C226.547 40.4843 224.722 40.8673 222.575 40.8673C220.427 40.8673 218.604 40.4843 217.103 39.7182C215.603 38.9188 214.382 37.8697 213.441 36.5707C212.529 35.2385 211.852 33.7062 211.411 31.9744C210.999 30.2425 210.793 28.4105 210.793 26.4788V4.59619H214.5V25.8792C214.5 27.3113 214.632 28.6937 214.897 30.0259C215.162 31.3581 215.603 32.5407 216.221 33.5731C216.839 34.6055 217.662 35.4384 218.692 36.0711C219.721 36.6706 221.015 36.9704 222.575 36.9704C224.133 36.9704 225.428 36.6706 226.458 36.0711C227.486 35.4384 228.312 34.6055 228.929 33.5731C229.547 32.5407 229.988 31.3581 230.253 30.0259C230.518 28.6937 230.65 27.3113 230.65 25.8792V4.59619H234.357V26.4788ZM241.2 16.5866H244.642V19.9839H244.73C245.67 18.7183 246.76 17.7357 247.996 17.0363C249.26 16.3368 250.643 15.9871 252.143 15.9871C253.761 15.9871 255.232 16.3035 256.556 16.9364C257.908 17.5359 259.056 18.3852 259.998 19.4843C260.938 20.5835 261.674 21.8824 262.204 23.3812C262.733 24.88 262.998 26.512 262.998 28.2773C262.998 30.0427 262.733 31.6746 262.204 33.1734C261.674 34.6722 260.938 35.9712 259.998 37.0703C259.084 38.1694 257.997 39.0355 256.732 39.6682C255.466 40.2678 254.114 40.5675 252.673 40.5675C250.82 40.5675 249.187 40.1179 247.775 39.2186C246.392 38.2861 245.377 37.1535 244.73 35.8213H244.642V51.3589H241.2V16.5866ZM244.642 28.2773C244.642 29.5096 244.803 30.6587 245.128 31.7246C245.481 32.757 245.979 33.673 246.628 34.4724C247.274 35.2385 248.04 35.8545 248.922 36.3209C249.833 36.7538 250.848 36.9704 251.967 36.9704C253.083 36.9704 254.085 36.7538 254.967 36.3209C255.879 35.8545 256.657 35.2385 257.306 34.4724C257.952 33.673 258.438 32.757 258.762 31.7246C259.115 30.6587 259.292 29.5096 259.292 28.2773C259.292 27.0451 259.115 25.9125 258.762 24.88C258.438 23.8142 257.952 22.8983 257.306 22.1322C256.657 21.3329 255.879 20.7167 254.967 20.2837C254.085 19.8174 253.083 19.5842 251.967 19.5842C250.848 19.5842 249.833 19.8174 248.922 20.2837C248.04 20.7167 247.274 21.3329 246.628 22.1322C245.979 22.8983 245.481 23.8142 245.128 24.88C244.803 25.9125 244.642 27.0451 244.642 28.2773ZM279.647 19.884H273.557V31.5747C273.557 32.3408 273.573 33.0568 273.601 33.723C273.632 34.3557 273.749 34.922 273.954 35.4216C274.162 35.888 274.471 36.271 274.881 36.5707C275.294 36.8373 275.883 36.9704 276.646 36.9704C277.147 36.9704 277.661 36.9037 278.19 36.7706C278.72 36.6374 279.221 36.4376 279.691 36.171L279.823 39.7182C279.236 40.018 278.574 40.2345 277.837 40.3677C277.131 40.5008 276.456 40.5675 275.808 40.5675C274.572 40.5675 273.588 40.3844 272.851 40.018C272.117 39.6515 271.543 39.1354 271.13 38.4692C270.72 37.803 270.44 36.9871 270.292 36.0212C270.175 35.0219 270.116 33.9228 270.116 32.7238V19.884H265.615V16.5866H270.116V9.94193H273.557V16.5866H279.647V19.884ZM284.216 16.5866H287.657V39.968H284.216V16.5866ZM283.421 7.44392C283.421 6.67786 283.658 6.01174 284.127 5.44551C284.628 4.87929 285.231 4.59619 285.937 4.59619C286.643 4.59619 287.232 4.87929 287.702 5.44551C288.202 6.01174 288.452 6.67786 288.452 7.44392C288.452 8.27658 288.216 8.95939 287.746 9.49229C287.276 10.0252 286.671 10.2917 285.937 10.2917C285.202 10.2917 284.597 10.0252 284.127 9.49229C283.658 8.95939 283.421 8.27658 283.421 7.44392ZM294.508 22.1322C294.508 21.0664 294.477 20.0672 294.42 19.1346C294.36 18.202 294.331 17.3527 294.331 16.5866H297.597C297.597 17.2195 297.61 17.8523 297.641 18.4851C297.669 19.1179 297.685 19.7674 297.685 20.4336H297.773C298.007 19.8673 298.331 19.3178 298.744 18.7849C299.185 18.252 299.699 17.7857 300.288 17.386C300.875 16.953 301.537 16.6199 302.274 16.3868C303.009 16.1203 303.803 15.9871 304.657 15.9871C305.773 15.9871 306.7 16.1537 307.436 16.4867C308.2 16.7865 308.833 17.1695 309.334 17.6358C309.832 18.0688 310.216 18.5517 310.481 19.0846C310.775 19.5842 311.011 20.0339 311.187 20.4336C311.95 19.0347 312.833 17.9522 313.835 17.1862C314.834 16.3868 316.129 15.9871 317.718 15.9871C319.187 15.9871 320.422 16.2203 321.424 16.6866C322.424 17.1195 323.233 17.769 323.851 18.635C324.469 19.4677 324.91 20.5002 325.175 21.7325C325.439 22.9316 325.572 24.2805 325.572 25.7793V39.968H322.13V25.9792C322.13 25.1798 322.055 24.3971 321.909 23.631C321.762 22.865 321.497 22.1822 321.115 21.5827C320.731 20.9831 320.217 20.5002 319.571 20.1338C318.922 19.7674 318.099 19.5842 317.1 19.5842C316.363 19.5842 315.672 19.7508 315.026 20.0839C314.377 20.4169 313.804 20.8832 313.305 21.4827C312.833 22.0823 312.451 22.815 312.158 23.681C311.893 24.5136 311.761 25.4463 311.761 26.4788V39.968H308.319V26.7286C308.319 24.1306 308.01 22.2988 307.392 21.2329C306.775 20.1338 305.76 19.5842 304.348 19.5842C303.229 19.5842 302.258 19.8008 301.435 20.2337C300.641 20.6667 299.979 21.2829 299.45 22.0823C298.949 22.8816 298.567 23.8309 298.303 24.93C298.067 26.0291 297.95 27.2449 297.95 28.5771V39.968H294.508V22.1322ZM350.527 35.7214C349.291 37.52 347.939 38.7857 346.467 39.5184C344.996 40.2178 343.29 40.5675 341.349 40.5675C339.732 40.5675 338.275 40.251 336.98 39.6183C335.685 38.9521 334.582 38.0695 333.671 36.9704C332.788 35.8713 332.098 34.5723 331.597 33.0735C331.127 31.5747 330.891 29.976 330.891 28.2773C330.891 26.4788 331.156 24.8301 331.685 23.3313C332.215 21.7992 332.95 20.5002 333.892 19.4344C334.834 18.3352 335.95 17.4859 337.245 16.8864C338.54 16.2869 339.952 15.9871 341.481 15.9871C342.922 15.9871 344.246 16.2702 345.452 16.8364C346.659 17.3693 347.687 18.1687 348.541 19.2345C349.424 20.267 350.101 21.5494 350.571 23.0815C351.041 24.5803 351.277 26.2957 351.277 28.2274V29.4764H334.598C334.657 30.4756 334.862 31.4416 335.215 32.3741C335.597 33.2733 336.082 34.0727 336.671 34.7721C337.261 35.4384 337.951 35.9712 338.745 36.3709C339.54 36.7706 340.407 36.9704 341.349 36.9704C342.849 36.9704 344.113 36.6706 345.143 36.0711C346.174 35.4716 347.1 34.589 347.923 33.4232L350.527 35.7214ZM347.57 26.179C347.511 24.1806 346.937 22.5819 345.849 21.3828C344.762 20.1838 343.262 19.5842 341.349 19.5842C339.436 19.5842 337.892 20.1838 336.716 21.3828C335.54 22.5819 334.834 24.1806 334.598 26.179H347.57Z" fill="#1570EF"/>
</svg>
