<svg width="26" height="16" viewBox="0 0 26 16" fill="none" xmlns="http://www.w3.org/2000/svg">
<path d="M0.761364 15V0.454545H5.84659C6.85985 0.454545 7.69555 0.629735 8.35369 0.980114C9.01184 1.32576 9.50189 1.79214 9.82386 2.37926C10.1458 2.96165 10.3068 3.60795 10.3068 4.31818C10.3068 4.94318 10.1955 5.45928 9.97301 5.86648C9.75521 6.27367 9.46638 6.59564 9.10653 6.83239C8.75142 7.06913 8.36553 7.24432 7.94886 7.35795V7.5C8.39394 7.52841 8.84138 7.68466 9.29119 7.96875C9.741 8.25284 10.1174 8.66004 10.4205 9.19034C10.7235 9.72064 10.875 10.3693 10.875 11.1364C10.875 11.8655 10.7093 12.5213 10.3778 13.1037C10.0464 13.6861 9.5232 14.1477 8.80824 14.4886C8.09328 14.8295 7.16288 15 6.01705 15H0.761364ZM2.52273 13.4375H6.01705C7.16761 13.4375 7.98438 13.215 8.46733 12.7699C8.95502 12.3201 9.19886 11.7756 9.19886 11.1364C9.19886 10.6439 9.07339 10.1894 8.82244 9.77273C8.5715 9.35133 8.21402 9.01515 7.75 8.7642C7.28598 8.50852 6.73674 8.38068 6.10227 8.38068H2.52273V13.4375ZM2.52273 6.84659H5.78977C6.32008 6.84659 6.7983 6.74242 7.22443 6.53409C7.6553 6.32576 7.99621 6.0322 8.24716 5.65341C8.50284 5.27462 8.63068 4.82955 8.63068 4.31818C8.63068 3.67898 8.40814 3.13684 7.96307 2.69176C7.51799 2.24195 6.8125 2.01705 5.84659 2.01705H2.52273V6.84659Z" fill="#344054"/>
<path d="M23.3146 0.454545H25.076V10.0852C25.076 11.0795 24.8416 11.9673 24.3729 12.7486C23.9089 13.5251 23.2531 14.1383 22.4055 14.5881C21.558 15.0331 20.5637 15.2557 19.4226 15.2557C18.2815 15.2557 17.2872 15.0331 16.4396 14.5881C15.5921 14.1383 14.9339 13.5251 14.4652 12.7486C14.0012 11.9673 13.7692 11.0795 13.7692 10.0852V0.454545H15.5305V9.94318C15.5305 10.6534 15.6868 11.2855 15.9993 11.8395C16.3118 12.3887 16.7569 12.822 17.3345 13.1392C17.9169 13.4517 18.6129 13.608 19.4226 13.608C20.2322 13.608 20.9283 13.4517 21.5107 13.1392C22.093 12.822 22.5381 12.3887 22.8459 11.8395C23.1584 11.2855 23.3146 10.6534 23.3146 9.94318V0.454545Z" fill="#1570EF"/>
</svg>
