<svg width="32" height="32" viewBox="0 0 32 32" fill="none" xmlns="http://www.w3.org/2000/svg">
<rect width="32" height="32" fill="#1570EF"/>
<path d="M4.43466 24V9.45455H10.0028C11.054 9.45455 11.9276 9.62026 12.6236 9.9517C13.3243 10.2784 13.8475 10.7259 14.1932 11.294C14.5436 11.8622 14.7188 12.5062 14.7188 13.2259C14.7188 13.8177 14.6051 14.3243 14.3778 14.7457C14.1506 15.1624 13.8452 15.5009 13.4616 15.7614C13.0781 16.0218 12.6496 16.2088 12.1761 16.3224V16.4645C12.6922 16.4929 13.187 16.6515 13.6605 16.9403C14.1387 17.2244 14.5294 17.6269 14.8324 18.1477C15.1354 18.6686 15.2869 19.2983 15.2869 20.0369C15.2869 20.7898 15.1046 21.4669 14.7401 22.0682C14.3755 22.6648 13.8262 23.1359 13.0923 23.4815C12.3584 23.8272 11.4351 24 10.3224 24H4.43466ZM7.0696 21.7983H9.90341C10.8598 21.7983 11.5488 21.616 11.9702 21.2514C12.3963 20.8821 12.6094 20.4086 12.6094 19.831C12.6094 19.4001 12.5028 19.0118 12.2898 18.6662C12.0767 18.3158 11.7737 18.0412 11.3807 17.8423C10.9877 17.6387 10.5189 17.5369 9.97443 17.5369H7.0696V21.7983ZM7.0696 15.6406H9.67614C10.1307 15.6406 10.5402 15.5578 10.9048 15.392C11.2694 15.2216 11.5559 14.9825 11.7642 14.6747C11.9773 14.3622 12.0838 13.9929 12.0838 13.5668C12.0838 13.0033 11.8849 12.5393 11.4872 12.1747C11.0942 11.8101 10.5095 11.6278 9.73295 11.6278H7.0696V15.6406ZM25.5482 9.45455H28.1832V18.9574C28.1832 19.9991 27.937 20.9152 27.4445 21.706C26.9568 22.4967 26.2703 23.1146 25.3849 23.5597C24.4995 24 23.4649 24.2202 22.2812 24.2202C21.0927 24.2202 20.0558 24 19.1704 23.5597C18.285 23.1146 17.5984 22.4967 17.1107 21.706C16.623 20.9152 16.3792 19.9991 16.3792 18.9574V9.45455H19.0141V18.7372C19.0141 19.3433 19.1467 19.883 19.4119 20.3565C19.6817 20.83 20.0605 21.2017 20.5482 21.4716C21.0359 21.7367 21.6136 21.8693 22.2812 21.8693C22.9488 21.8693 23.5264 21.7367 24.0141 21.4716C24.5066 21.2017 24.8853 20.83 25.1505 20.3565C25.4156 19.883 25.5482 19.3433 25.5482 18.7372V9.45455Z" fill="white"/>
</svg>
