<svg width="60" height="60" viewBox="0 0 60 60" fill="none" xmlns="http://www.w3.org/2000/svg">
<g filter="url(#filter0_d_137_19027)">
<path d="M2.5 13C2.5 6.64873 7.64873 1.5 14 1.5H46C52.3513 1.5 57.5 6.64873 57.5 13V45C57.5 51.3513 52.3513 56.5 46 56.5H14C7.64873 56.5 2.5 51.3513 2.5 45V13Z" stroke="#EAECF0" shape-rendering="crispEdges"/>
<path d="M24.7499 28.9999L28.2499 32.4999L35.2499 25.4999M41.6666 28.9999C41.6666 35.4432 36.4432 40.6666 29.9999 40.6666C23.5566 40.6666 18.3333 35.4432 18.3333 28.9999C18.3333 22.5566 23.5566 17.3333 29.9999 17.3333C36.4432 17.3333 41.6666 22.5566 41.6666 28.9999Z" stroke="#344054" stroke-width="2" stroke-linecap="round" stroke-linejoin="round"/>
</g>
<defs>
<filter id="filter0_d_137_19027" x="0" y="0" width="60" height="60" filterUnits="userSpaceOnUse" color-interpolation-filters="sRGB">
<feFlood flood-opacity="0" result="BackgroundImageFix"/>
<feColorMatrix in="SourceAlpha" type="matrix" values="0 0 0 0 0 0 0 0 0 0 0 0 0 0 0 0 0 0 127 0" result="hardAlpha"/>
<feOffset dy="1"/>
<feGaussianBlur stdDeviation="1"/>
<feComposite in2="hardAlpha" operator="out"/>
<feColorMatrix type="matrix" values="0 0 0 0 0.0627451 0 0 0 0 0.0941176 0 0 0 0 0.156863 0 0 0 0.05 0"/>
<feBlend mode="normal" in2="BackgroundImageFix" result="effect1_dropShadow_137_19027"/>
<feBlend mode="normal" in="SourceGraphic" in2="effect1_dropShadow_137_19027" result="shape"/>
</filter>
</defs>
</svg>
