<svg width="24" height="24" viewBox="0 0 24 24" fill="none" xmlns="http://www.w3.org/2000/svg">
<path d="M3.07598 7.48282L7.36402 10.5457C7.58715 10.705 7.69872 10.7847 7.81548 10.8031C7.91821 10.8192 8.02343 10.8029 8.11648 10.7565C8.22223 10.7037 8.30449 10.594 8.46901 10.3747L9.37511 9.16652C9.42164 9.10448 9.4449 9.07347 9.47224 9.04671C9.49652 9.02295 9.52315 9.00173 9.55173 8.98338C9.58392 8.9627 9.61935 8.94696 9.6902 8.91546L13.5588 7.19609C13.7192 7.12482 13.7993 7.08918 13.8598 7.03352C13.9133 6.9843 13.9554 6.924 13.9832 6.85684C14.0146 6.78091 14.0204 6.69336 14.0321 6.51826L14.3154 2.2694M13.5 13.5L16.116 14.6211C16.4195 14.7512 16.5713 14.8163 16.6517 14.9243C16.7222 15.0191 16.7569 15.1358 16.7496 15.2537C16.7413 15.3881 16.6497 15.5255 16.4665 15.8002L15.2375 17.6438C15.1507 17.774 15.1072 17.8391 15.0499 17.8863C14.9991 17.928 14.9406 17.9593 14.8777 17.9784C14.8067 18 14.7284 18 14.5719 18H12.5766C12.3693 18 12.2656 18 12.1774 17.9653C12.0995 17.9347 12.0305 17.885 11.9768 17.8208C11.916 17.7481 11.8832 17.6497 11.8177 17.453L11.1048 15.3144C11.0661 15.1983 11.0468 15.1403 11.0417 15.0814C11.0372 15.0291 11.0409 14.9764 11.0528 14.9253C11.0662 14.8677 11.0935 14.813 11.1482 14.7036L11.6897 13.6206C11.7997 13.4005 11.8547 13.2905 11.9395 13.2222C12.0141 13.162 12.1046 13.1246 12.1999 13.1143C12.3081 13.1027 12.4248 13.1416 12.6582 13.2194L13.5 13.5ZM22 12C22 17.5228 17.5228 22 12 22C6.47715 22 2 17.5228 2 12C2 6.47715 6.47715 2 12 2C17.5228 2 22 6.47715 22 12Z" stroke="black" stroke-width="1.1" stroke-linecap="round" stroke-linejoin="round"/>
</svg>
