<svg width="14" height="14" viewBox="0 0 14 14" fill="none" xmlns="http://www.w3.org/2000/svg">
<path d="M10.3337 5.66667V4.33333C10.3337 2.49238 8.84127 1 7.00033 1C5.15938 1 3.66699 2.49238 3.66699 4.33333V5.66667M7.00033 8.66667V10M4.86699 13H9.13366C10.2538 13 10.8138 13 11.2416 12.782C11.618 12.5903 11.9239 12.2843 12.1157 11.908C12.3337 11.4802 12.3337 10.9201 12.3337 9.8V8.86667C12.3337 7.74656 12.3337 7.18651 12.1157 6.75869C11.9239 6.38236 11.618 6.0764 11.2416 5.88465C10.8138 5.66667 10.2538 5.66667 9.13366 5.66667H4.86699C3.74689 5.66667 3.18683 5.66667 2.75901 5.88465C2.38269 6.0764 2.07673 6.38236 1.88498 6.75869C1.66699 7.18651 1.66699 7.74656 1.66699 8.86667V9.8C1.66699 10.9201 1.66699 11.4802 1.88498 11.908C2.07673 12.2843 2.38269 12.5903 2.75901 12.782C3.18683 13 3.74689 13 4.86699 13Z" stroke="#667085" stroke-width="1" stroke-linecap="round" stroke-linejoin="round"/>
</svg>
