<svg width="16" height="16" viewBox="0 0 16 16" fill="none" xmlns="http://www.w3.org/2000/svg">
<path d="M13.3337 14C13.3337 13.0696 13.3337 12.6044 13.2188 12.2259C12.9603 11.3736 12.2934 10.7067 11.4411 10.4482C11.0626 10.3333 10.5974 10.3333 9.66699 10.3333H6.33366C5.40328 10.3333 4.93809 10.3333 4.55956 10.4482C3.7073 10.7067 3.04035 11.3736 2.78182 12.2259C2.66699 12.6044 2.66699 13.0696 2.66699 14M11.0003 5C11.0003 6.65685 9.65718 8 8.00033 8C6.34347 8 5.00033 6.65685 5.00033 5C5.00033 3.34315 6.34347 2 8.00033 2C9.65718 2 11.0003 3.34315 11.0003 5Z" stroke="#667085" stroke-width="1.2" stroke-linecap="round" stroke-linejoin="round"/>
</svg>
