<svg width="32" height="32" viewBox="0 0 32 32" fill="none" xmlns="http://www.w3.org/2000/svg">
<rect width="32" height="32" fill="#1570EF"/>
<path d="M21.8849 14.3622H19.2287C19.1529 13.9266 19.0133 13.5407 18.8097 13.2045C18.6061 12.8636 18.3527 12.5748 18.0497 12.3381C17.7467 12.1013 17.401 11.9238 17.0128 11.8054C16.6293 11.6823 16.215 11.6207 15.7699 11.6207C14.9792 11.6207 14.2784 11.8196 13.6676 12.2173C13.0568 12.6103 12.5786 13.188 12.233 13.9503C11.8873 14.7079 11.7145 15.6335 11.7145 16.7273C11.7145 17.84 11.8873 18.7775 12.233 19.5398C12.5833 20.2973 13.0616 20.8703 13.6676 21.2585C14.2784 21.642 14.9768 21.8338 15.7628 21.8338C16.1984 21.8338 16.6056 21.777 16.9844 21.6634C17.3679 21.545 17.7112 21.3722 18.0142 21.1449C18.322 20.9176 18.58 20.6383 18.7884 20.3068C19.0014 19.9754 19.1482 19.5966 19.2287 19.1705L21.8849 19.1847C21.7855 19.8759 21.5701 20.5246 21.2386 21.1307C20.9119 21.7367 20.4834 22.2718 19.9531 22.7358C19.4228 23.1951 18.8026 23.5549 18.0923 23.8153C17.3821 24.071 16.5938 24.1989 15.7273 24.1989C14.4489 24.1989 13.3078 23.9029 12.304 23.3111C11.3002 22.7192 10.5095 21.8646 9.93182 20.7472C9.35417 19.6297 9.06534 18.2898 9.06534 16.7273C9.06534 15.16 9.35653 13.8201 9.93892 12.7074C10.5213 11.59 11.3144 10.7353 12.3182 10.1435C13.322 9.55161 14.4583 9.25568 15.7273 9.25568C16.5369 9.25568 17.2898 9.36932 17.9858 9.59659C18.6818 9.82386 19.3021 10.1577 19.8466 10.598C20.3911 11.0336 20.8385 11.5687 21.1889 12.2031C21.544 12.8329 21.776 13.5526 21.8849 14.3622Z" fill="white"/>
</svg>
